<?xml version="1.0" encoding="UTF-8" standalone="no"?>
<svg
   width="173.00002"
   height="158.339"
   viewBox="0 0 173.00002 158.33901"
   fill="none"
   version="1.1"
   id="svg5988"
   sodipodi:docname="default-photo.svg"
   inkscape:version="1.2 (dc2aedaf03, 2022-05-15)"
   xmlns:inkscape="http://www.inkscape.org/namespaces/inkscape"
   xmlns:sodipodi="http://sodipodi.sourceforge.net/DTD/sodipodi-0.dtd"
   xmlns="http://www.w3.org/2000/svg"
   xmlns:svg="http://www.w3.org/2000/svg">
  <defs
     id="defs5992" />
  <sodipodi:namedview
     id="namedview5990"
     pagecolor="#ffffff"
     bordercolor="#000000"
     borderopacity="0.25"
     inkscape:showpageshadow="2"
     inkscape:pageopacity="0.0"
     inkscape:pagecheckerboard="0"
     inkscape:deskcolor="#d1d1d1"
     showgrid="false"
     inkscape:zoom="3.7685185"
     inkscape:cx="85.842752"
     inkscape:cy="74.299754"
     inkscape:window-width="1920"
     inkscape:window-height="1017"
     inkscape:window-x="-8"
     inkscape:window-y="-8"
     inkscape:window-maximized="1"
     inkscape:current-layer="svg5988" />
  <path
     d="m 64.895859,60.106999 v -7.624996 h 5.0833 v 7.624996 h 7.625 v 5.0833 h -7.625 v 7.625 h -5.0833 v -7.625 h -7.625 v -5.0833 z m 7.625,15.25 v -7.625 h 7.625 v -7.625 h 17.7917 l 4.651201,5.0833 h 8.0571 c 2.7958,0 5.0833,2.2875 5.0833,5.0834 V 100.7737 c 0,2.7958 -2.2875,5.0833 -5.0833,5.0833 H 69.979159 c -2.7958,0 -5.0833,-2.2875 -5.0833,-5.0833 V 75.356999 Z m 17.7917,22.875 c 7.015,0 12.708301,-5.6933 12.708301,-12.7083 0,-7.015 -5.693301,-12.7084 -12.708301,-12.7084 -7.015,0 -12.7084,5.6934 -12.7084,12.7084 0,7.015 5.6934,12.7083 12.7084,12.7083 z m -8.1334,-12.7083 c 0,4.4987 3.6346,8.1333 8.1334,8.1333 4.4987,0 8.1333,-3.6346 8.1333,-8.1333 0,-4.4988 -3.6346,-8.1334 -8.1333,-8.1334 -4.4988,0 -8.1334,3.6346 -8.1334,8.1334 z"
     fill="#dadada"
     id="path5986" />
</svg>
