<svg width="30" height="17" viewBox="0 0 30 17" fill="none" xmlns="http://www.w3.org/2000/svg">
<path d="M14.6791 16.9278H16.4716C16.4716 16.9278 17.0137 16.8685 17.2891 16.5723C17.544 16.3005 17.5346 15.7901 17.5346 15.7901C17.5346 15.7901 17.4989 13.4006 18.6164 13.0491C19.7169 12.7028 21.1308 15.3583 22.6292 16.3808C23.762 17.1536 24.6228 16.9843 24.6228 16.9843L28.6298 16.9284C28.6298 16.9284 30.7265 16.7998 29.7326 15.1627C29.6518 15.0289 29.1531 13.9523 26.7529 11.7397C24.2401 9.4229 24.5777 9.79942 27.6043 5.79322C29.4478 3.35366 30.1844 1.86384 29.9541 1.22718C29.735 0.6202 28.379 0.780238 28.379 0.780238L23.8709 0.806426C23.8709 0.806426 23.5369 0.761616 23.2879 0.908851C23.0459 1.05434 22.8906 1.38955 22.8906 1.38955C22.8906 1.38955 22.1763 3.278 21.2234 4.88304C19.2152 8.27062 18.4107 8.44928 18.0825 8.23861C17.3196 7.7486 17.5106 6.2681 17.5106 5.21825C17.5106 1.93484 18.011 0.566078 16.5337 0.212247C16.0427 0.0946918 15.6823 0.0167094 14.4277 0.00390632C12.8186 -0.0129705 11.4555 0.0097259 10.685 0.383925C10.1711 0.633585 9.77551 1.19052 10.0175 1.22194C10.3158 1.26094 10.9909 1.40235 11.3489 1.88654C11.8118 2.5104 11.7954 3.91466 11.7954 3.91466C11.7954 3.91466 12.0615 7.77887 11.1749 8.25956C10.5654 8.58895 9.73097 7.91679 7.94018 4.84231C7.0231 3.26869 6.32929 1.52747 6.32929 1.52747C6.32929 1.52747 6.19627 1.20332 5.95777 1.03048C5.66888 0.819811 5.26396 0.752886 5.26396 0.752886L0.97743 0.779074C0.97743 0.779074 0.334012 0.797697 0.0978571 1.07529C-0.111928 1.32321 0.0808633 1.833 0.0808633 1.833C0.0808633 1.833 3.43742 9.62949 7.23699 13.5612C10.7225 17.1647 14.6791 16.9278 14.6791 16.9278Z" fill="black"/>
</svg>
